<svg width="256" height="256" viewBox="0 0 256 256" fill="none" xmlns="http://www.w3.org/2000/svg">
  <rect width="256" height="256" rx="64" fill="#06111F"/>
  <rect x="16" y="16" width="224" height="224" rx="48" stroke="url(#paint0_linear)" stroke-width="2" stroke-opacity="0.45"/>
  <circle cx="78" cy="72" r="34" fill="url(#paint1_radial)"/>
  <circle cx="182" cy="188" r="42" fill="url(#paint2_radial)" fill-opacity="0.65"/>
  <path d="M67 162C67 128.863 93.8629 102 127 102H129C162.137 102 189 128.863 189 162V168C189 194.51 167.51 216 141 216H115C88.4903 216 67 194.51 67 168V162Z" fill="#091C2E" stroke="#22D6FF" stroke-opacity="0.24" stroke-width="2"/>
  <circle cx="128" cy="140" r="34" fill="#071522" stroke="#22D6FF" stroke-width="2"/>
  <circle cx="128" cy="140" r="16" fill="#22D6FF" fill-opacity="0.2" stroke="#22D6FF" stroke-width="2"/>
  <path d="M128 106V174" stroke="#22D6FF" stroke-width="2"/>
  <path d="M94 140H162" stroke="#22D6FF" stroke-width="2"/>
  <circle cx="89" cy="110" r="8" fill="#3BF0C7"/>
  <circle cx="168" cy="123" r="8" fill="#8B7DFF"/>
  <circle cx="160" cy="180" r="8" fill="#22D6FF"/>
  <circle cx="96" cy="176" r="8" fill="#3BF0C7"/>
  <path d="M89 110L128 140L168 123" stroke="url(#paint3_linear)" stroke-width="3"/>
  <path d="M96 176L128 140L160 180" stroke="url(#paint4_linear)" stroke-width="3"/>
  <rect x="98" y="54" width="60" height="12" rx="6" fill="#22D6FF" fill-opacity="0.82"/>
  <defs>
    <linearGradient id="paint0_linear" x1="32" y1="26" x2="226" y2="232" gradientUnits="userSpaceOnUse">
      <stop stop-color="#22D6FF"/>
      <stop offset="1" stop-color="#8B7DFF"/>
    </linearGradient>
    <radialGradient id="paint1_radial" cx="0" cy="0" r="1" gradientUnits="userSpaceOnUse" gradientTransform="translate(78 72) rotate(90) scale(34)">
      <stop stop-color="#22D6FF"/>
      <stop offset="1" stop-color="#22D6FF" stop-opacity="0"/>
    </radialGradient>
    <radialGradient id="paint2_radial" cx="0" cy="0" r="1" gradientUnits="userSpaceOnUse" gradientTransform="translate(182 188) rotate(90) scale(42)">
      <stop stop-color="#8B7DFF"/>
      <stop offset="1" stop-color="#8B7DFF" stop-opacity="0"/>
    </radialGradient>
    <linearGradient id="paint3_linear" x1="89" y1="110" x2="168" y2="123" gradientUnits="userSpaceOnUse">
      <stop stop-color="#3BF0C7"/>
      <stop offset="1" stop-color="#8B7DFF"/>
    </linearGradient>
    <linearGradient id="paint4_linear" x1="96" y1="176" x2="160" y2="180" gradientUnits="userSpaceOnUse">
      <stop stop-color="#22D6FF"/>
      <stop offset="1" stop-color="#3BF0C7"/>
    </linearGradient>
  </defs>
</svg>
